<?xml version="1.0" encoding="UTF-8"?>
<svg id="Capa_2" data-name="Capa 2" xmlns="http://www.w3.org/2000/svg" viewBox="0 0 62.88 65.92">
  <defs>
    <style>
      .cls-1 {
        fill: #fff;
      }
    </style>
  </defs>
  <g id="Capa_1-2" data-name="Capa 1">
    <path class="cls-1" d="M47.54,20.5v5.88h8.73v3.29c0,1.34-.27,2.51-.82,3.51-.54.99-1.27,1.83-2.18,2.5-.91.67-1.97,1.18-3.18,1.52-1.21.35-2.49.52-3.82.52-3.36,0-6.06-1.08-8.1-3.23-2.04-2.15-3.06-5.19-3.06-9.13v-2.77c0-.13,0-.25,0-.37s0-.24,0-.36v-3.44c0-3.94,1.02-6.98,3.06-9.13,2.04-2.15,4.74-3.23,8.1-3.23,2.59,0,4.73.62,6.43,1.86,1.7,1.24,2.95,2.85,3.76,4.84l5.58-3.27c-1.46-2.98-3.5-5.31-6.13-6.99-2.63-1.68-5.84-2.51-9.64-2.51-2.79,0-5.32.48-7.58,1.43-2.27.95-4.2,2.35-5.82,4.21-.55.64-1.06,1.33-1.53,2.06-.41-.61-.84-1.19-1.31-1.73-1.62-1.86-3.56-3.26-5.82-4.21-2.26-.95-4.79-1.43-7.58-1.43-3.8,0-7.01.84-9.64,2.51-2.63,1.67-4.67,4-6.13,6.99l5.58,3.27c.81-1.99,2.06-3.6,3.76-4.84s3.84-1.86,6.43-1.86c3.36,0,6.06,1.07,8.1,3.23,2.04,2.15,3.06,5.2,3.06,9.13v2.78c0,.12,0,.24,0,.36s0,.25,0,.37v3.43c0,3.94-1.02,6.98-3.06,9.13-2.04,2.15-4.74,3.23-8.1,3.23-1.33,0-2.61-.17-3.82-.52-1.21-.35-2.28-.85-3.18-1.52s-1.64-1.51-2.18-2.5c-.55-1-.82-2.16-.82-3.51v-3.29h8.73v-5.88H0v22.56h6.01v-6.37h.24c.44,2.05,1.65,3.74,3.61,5.08,1.96,1.34,4.56,2.02,7.79,2.02.39,0,.77-.02,1.15-.04-.46.74-.7,1.63-.7,2.68,0,2.47,1.19,4.08,3.58,4.85v.67c-1.7.36-3.02,1.03-3.97,2-.95.97-1.43,2.32-1.43,4.06,0,1.21.26,2.28.79,3.22.52.93,1.36,1.72,2.51,2.36,1.15.65,2.63,1.14,4.43,1.49,1.8.34,3.99.52,6.58.52,5.66,0,9.74-.83,12.25-2.49,2.51-1.66,3.76-4.12,3.76-7.4,0-2.71-.87-4.84-2.61-6.4-1.74-1.55-4.55-2.33-8.43-2.33h-7.76c-1.42,0-2.51-.18-3.28-.55-.77-.36-1.15-.97-1.15-1.82s.31-1.47.91-1.97c.14-.11.28-.22.43-.32.53-.24,1.04-.5,1.53-.79.06-.02.11-.05.16-.07h-.04c1.42-.87,2.69-1.96,3.81-3.28.49-.58.95-1.22,1.37-1.89.36.55.75,1.07,1.16,1.56,1.56,1.84,3.41,3.23,5.55,4.18,2.14.95,4.47,1.43,6.97,1.43,3.23,0,5.83-.67,7.79-2.02,1.96-1.34,3.16-3.04,3.61-5.08h.24v6.37h6.01v-22.56h-15.34ZM23.98,53.19h10.67c2.18,0,3.69.32,4.52.97.82.65,1.24,1.52,1.24,2.61,0,2.91-2.57,4.37-7.7,4.37h-4.13c-2.47,0-4.21-.39-5.25-1.18-1.03-.79-1.54-1.83-1.54-3.12,0-1.58.73-2.79,2.18-3.64Z"/>
  </g>
</svg>